# xmcd
#
# Track frame offsets: 
#        150
#        10226
#        24691
#        40616
#        50788
#        65743
#        82389
#        95179
#        110443
#        120904
#
# Disc length: 1749 seconds
#
# Revision: 2
# Processed by: cddbd v1.5.2PL0 Copyright (c) Steve Scherf et al.
# Submitted via: ExactAudioCopy v0.99pb3
#
DISCID=8906d30a
DTITLE=David Allan Coe - David Allan Coe Sings Merle Haggard (King KSC
DTITLE=D-0304)
DYEAR=2002
DGENRE=Country
TTITLE0=Mama Tried
TTITLE1=Ramblin' Fever
TTITLE2=Waiting For A Train
TTITLE3=Fightin' Side Of Me
TTITLE4=Lonesome Fugitive
TTITLE5=Sing Me Back Home
TTITLE6=White Line Fever
TTITLE7=Branded Man
TTITLE8=The Legend Of Bonny And Clyde
TTITLE9=Movin' On
EXTD=
EXTT0=
EXTT1=
EXTT2=
EXTT3=
EXTT4=
EXTT5=
EXTT6=
EXTT7=
EXTT8=
EXTT9=
PLAYORDER=
